<?xml version="1.0" standalone="no"?>
<!DOCTYPE svg PUBLIC "-//W3C//DTD SVG 20010904//EN"
 "http://www.w3.org/TR/2001/REC-SVG-20010904/DTD/svg10.dtd">
<svg version="1.0" xmlns="http://www.w3.org/2000/svg"
 width="270.000000pt" height="270.000000pt" viewBox="0 0 270.000000 270.000000"
 preserveAspectRatio="xMidYMid meet">
<metadata>
Created by potrace 1.11, written by Peter Selinger 2001-2013
</metadata>
<g transform="translate(0.000000,270.000000) scale(0.100000,-0.100000)"
fill="#000000" stroke="none">
<path d="M1624 2566 c-23 -7 -63 -28 -89 -47 -26 -19 -61 -43 -78 -55 -17 -11
-38 -32 -47 -46 -8 -14 -37 -53 -65 -87 -27 -34 -58 -76 -67 -93 -10 -17 -21
-34 -26 -37 -14 -10 -67 -92 -105 -161 -19 -36 -43 -80 -53 -98 l-19 -33 -65
7 c-147 14 -292 61 -306 98 -3 8 -14 16 -24 19 -10 3 -32 29 -49 58 -57 100
-36 220 49 277 19 12 43 29 52 37 33 27 104 39 165 26 70 -14 83 -14 83 0 0
24 -74 41 -155 36 -127 -7 -202 -52 -258 -152 -29 -53 -31 -173 -3 -225 68
-128 197 -200 388 -216 74 -7 78 -8 72 -28 -7 -23 -123 -211 -146 -236 -8 -9
-26 -32 -42 -52 l-27 -37 -47 21 c-77 33 -249 88 -276 88 -14 0 -26 5 -26 10
0 6 -37 10 -90 10 -49 0 -90 -4 -90 -8 0 -4 -19 -13 -43 -19 -58 -16 -152 -87
-174 -132 -24 -50 -24 -164 1 -211 22 -41 67 -84 116 -107 47 -22 165 -29 242
-13 59 11 198 74 198 90 0 3 21 21 48 39 26 18 72 60 103 93 l56 61 139 -66
c76 -36 168 -77 204 -92 36 -15 67 -30 70 -34 7 -10 112 -38 172 -46 65 -10
141 10 185 49 62 53 83 75 83 87 0 16 -50 2 -75 -21 -96 -86 -238 -69 -522 61
-73 34 -133 65 -133 70 0 4 -20 15 -44 25 -43 18 -43 18 -24 38 20 22 60 81
129 191 24 39 49 75 55 80 7 6 19 26 28 46 17 36 18 36 94 43 42 4 122 18 177
33 97 25 270 96 290 119 6 6 26 22 46 35 20 13 65 51 101 84 151 139 180 338
59 409 -43 25 -177 32 -237 12z m196 -49 c36 -17 48 -31 59 -62 12 -35 12 -47
-3 -97 -9 -32 -30 -72 -46 -90 -17 -18 -30 -38 -30 -44 0 -20 -115 -118 -175
-150 -31 -16 -66 -38 -77 -48 -45 -42 -370 -127 -394 -103 -3 3 3 18 13 34 11
15 30 48 42 73 12 25 28 50 35 55 15 12 96 131 96 141 0 10 60 86 104 131 23
22 55 55 71 73 40 41 89 71 150 92 68 23 102 22 155 -5z m-1370 -931 c82 -14
273 -76 304 -99 24 -19 -25 -80 -124 -154 -47 -36 -94 -72 -105 -80 -58 -48
-236 -69 -307 -35 -38 18 -108 94 -108 118 0 8 -4 14 -10 14 -5 0 -10 16 -10
35 0 19 4 35 9 35 5 0 11 12 14 28 11 54 105 126 187 143 53 10 58 10 150 -5z"/>
<path d="M2520 1796 c-31 -32 -68 -60 -89 -67 -48 -16 -171 -77 -188 -95 -8
-8 -20 -14 -27 -14 -7 0 -52 -25 -101 -55 -48 -30 -90 -55 -94 -55 -13 0 -102
-93 -145 -150 -23 -30 -46 -61 -53 -68 -34 -35 -53 -187 -33 -259 23 -82 160
-203 230 -203 11 0 20 7 20 15 0 8 -7 15 -15 15 -8 0 -25 8 -36 18 -104 83
-135 127 -146 207 -13 97 74 270 167 331 22 15 40 30 40 34 0 12 107 80 210
133 52 28 97 54 100 58 9 13 80 40 80 31 0 -15 -23 -77 -30 -82 -7 -5 -24 -62
-86 -285 -50 -184 -96 -329 -104 -335 -4 -3 -20 -41 -35 -85 -35 -101 -135
-325 -145 -325 -5 0 -44 14 -87 31 -203 82 -445 89 -583 19 -57 -29 -135 -109
-154 -158 -20 -54 -21 -160 -1 -210 19 -46 91 -104 153 -124 23 -7 42 -16 42
-20 0 -5 36 -8 80 -8 44 0 80 4 80 9 0 5 21 12 46 16 56 8 80 18 165 67 75 44
125 90 184 168 22 29 52 67 68 84 15 17 27 37 27 46 0 10 3 11 8 3 12 -19 133
-69 211 -88 89 -22 148 -16 209 22 48 29 70 73 38 73 -9 0 -16 -5 -16 -11 0
-5 -21 -19 -47 -31 -37 -16 -58 -19 -102 -15 -54 6 -151 34 -161 46 -3 4 -28
17 -57 30 l-52 24 34 66 c19 36 46 95 61 131 15 36 30 67 34 70 15 10 109 304
161 500 12 47 25 87 29 90 4 3 17 41 28 85 33 126 69 228 84 236 87 52 113 76
113 104 0 26 -4 30 -31 33 -27 3 -39 -5 -84 -52z m-740 -1203 c90 -18 220 -70
220 -87 0 -41 -145 -210 -225 -264 -108 -72 -168 -92 -286 -92 -98 0 -172 34
-206 95 -29 52 -31 136 -4 185 11 19 24 44 29 56 23 47 110 97 208 118 76 16
148 13 264 -11z"/>
</g>
</svg>
